# xmcd
#
# Track frame offsets:
#	150
#	16467
#	32647
#	62615
#	79890
#	96740
#	109369
#	128289
#	160084
#	178181
#	195555
#	212645
#	231735
#	252844
#	269556
#	285712
#	305863
#	322911
#
# Disc length: 4512 seconds
#
# Revision: 1
# Processed by: cddbd v1.5.2PL0 Copyright (c) Steve Scherf et al.
# Submitted via: audiograbber 1.83.01
#
DISCID=0b119e12
DTITLE=Allman Brothers Band - Reach For The Sky - Brothers Of The Road
DYEAR=1980
DGENRE=Blues
TTITLE0=Hell and High Water
TTITLE1=Mystery Women
TTITLE2=From The Madness Of The West
TTITLE3=I Got A Right To Be Wrong
TTITLE4=Angeline
TTITLE5=Famous Last Words
TTITLE6=Kepp On Keepin´  On
TTITLE7=So Long
TTITLE8=Brothers Of The Road
TTITLE9=Leavin
TTITLE10=´Staight From The Heart
TTITLE11=The Heat Is On
TTITLE12=Maybe We Can Go Back To Yesterday
TTITLE13=The Judgment
TTITLE14=Two Rights
TTITLE15=Never Knew How Much (I Needed You)
TTITLE16=Things Youz Use To Do
TTITLE17=I Beg Of You
EXTD=
EXTT0=
EXTT1=
EXTT2=
EXTT3=
EXTT4=
EXTT5=
EXTT6=
EXTT7=
EXTT8=
EXTT9=
EXTT10=
EXTT11=
EXTT12=
EXTT13=
EXTT14=
EXTT15=
EXTT16=
EXTT17=
PLAYORDER=
